<?xml version="1.0" standalone="no"?>
<!DOCTYPE svg PUBLIC "-//W3C//DTD SVG 20010904//EN"
 "http://www.w3.org/TR/2001/REC-SVG-20010904/DTD/svg10.dtd">
<svg version="1.0" xmlns="http://www.w3.org/2000/svg"
 width="512.000000pt" height="512.000000pt" viewBox="0 0 512.000000 512.000000"
 preserveAspectRatio="xMidYMid meet">
<metadata>
Created by potrace 1.11, written by Peter Selinger 2001-2013
</metadata>
<g transform="translate(0.000000,512.000000) scale(0.100000,-0.100000)"
fill="#000000" stroke="none">
<path d="M54 4679 c-26 -13 -54 -60 -54 -89 0 -19 75 -222 116 -315 7 -16 27
-66 44 -110 56 -146 71 -174 102 -197 24 -18 69 -24 338 -44 47 -3 101 -7 120
-9 19 -2 56 -5 81 -6 l46 -2 -3 -56 c-6 -119 -16 -298 -19 -336 -2 -22 -4 -53
-4 -70 l-1 -30 -158 -1 c-238 -2 -235 2 -237 -308 -1 -237 3 -269 39 -304 27
-27 22 -27 304 -32 11 0 12 -15 8 -67 -6 -65 -10 -136 -21 -323 -2 -47 -7
-119 -10 -160 -3 -41 -8 -115 -10 -165 -3 -49 -7 -126 -10 -170 -3 -44 -8
-114 -10 -155 -7 -119 -15 -240 -20 -305 -3 -33 -7 -107 -10 -165 -3 -58 -8
-130 -10 -160 -2 -30 -6 -98 -9 -150 -3 -52 -8 -126 -11 -165 -12 -148 -13
-279 -3 -300 5 -12 24 -30 41 -40 28 -17 56 -19 263 -19 256 0 283 5 307 57
16 34 21 89 42 447 3 52 8 124 10 160 6 97 14 213 20 320 3 52 8 124 10 160 2
36 7 106 10 155 3 50 7 119 10 155 2 36 7 110 10 165 3 55 8 129 10 165 2 36
7 101 10 145 2 44 7 121 10 170 11 175 16 239 21 244 6 7 2263 5 2270 -1 3 -4
7 -37 9 -75 7 -117 16 -276 20 -328 2 -27 7 -95 10 -150 7 -124 14 -228 20
-325 5 -73 8 -126 20 -315 7 -128 15 -250 20 -320 3 -33 7 -105 10 -160 2 -55
7 -136 10 -180 3 -44 8 -109 10 -145 3 -36 7 -108 10 -159 3 -53 13 -109 21
-127 25 -53 51 -58 309 -58 208 1 234 3 263 19 42 25 53 64 47 165 -3 47 -7
114 -10 150 -2 36 -7 110 -10 165 -9 155 -15 253 -20 335 -12 182 -16 250 -20
325 -13 209 -16 255 -20 315 -3 36 -7 108 -10 160 -6 101 -13 211 -20 325 -8
122 -15 238 -20 313 -4 83 -21 74 135 74 123 0 163 10 191 50 22 30 22 39 22
272 1 328 7 319 -238 320 l-155 0 -1 36 c-1 19 -3 51 -4 70 -3 38 -15 255 -19
333 -1 26 0 50 3 51 3 2 51 7 106 11 55 4 116 8 135 10 19 2 78 6 130 10 190
12 216 20 244 73 26 50 213 526 221 560 14 65 -34 122 -101 122 -14 0 -87 -11
-163 -25 -75 -13 -154 -27 -176 -30 -22 -3 -51 -8 -65 -10 -14 -2 -45 -7 -70
-10 -25 -3 -76 -10 -115 -15 -38 -6 -88 -13 -110 -15 -22 -3 -60 -7 -85 -10
-25 -3 -65 -8 -90 -10 -25 -2 -72 -7 -105 -11 -100 -11 -116 -12 -220 -19 -55
-4 -108 -9 -119 -11 -16 -3 -61 -6 -291 -19 -451 -26 -1387 -26 -1680 0 -22 1
-98 6 -168 10 -71 3 -137 8 -147 10 -10 2 -60 6 -111 10 -52 3 -112 8 -134 10
-54 6 -143 15 -180 20 -16 2 -55 6 -85 9 -141 15 -172 19 -240 31 -14 2 -47 7
-75 10 -51 6 -329 51 -375 61 -52 12 -136 13 -156 3z m1791 -825 c116 -3 248
-8 295 -9 47 -2 88 -3 93 -4 4 0 7 -97 7 -214 l0 -213 -390 0 -391 0 5 65 c3
37 8 123 12 194 3 70 7 135 9 145 2 9 4 25 4 34 1 15 11 16 74 13 39 -2 167
-7 282 -11z m1789 -27 c6 -47 19 -261 20 -352 l1 -60 -387 -1 -388 0 0 213 c0
117 3 213 8 214 4 1 48 2 97 4 328 10 490 16 492 18 1 1 35 3 76 4 l75 2 6
-42z"/>
</g>
</svg>
